HIERARCHY
ROOT Hips
{
	OFFSET -14.64140 90.27770 -84.91600
	CHANNELS 6 Xposition Yposition Zposition Zrotation Xrotation Yrotation
	JOINT Spine
	{
		OFFSET 0.00000 13.20850 -1.60436
		CHANNELS 3 Zrotation Xrotation Yrotation
		JOINT Spine1
		{
			OFFSET 0.00000 8.61716 0.00000
			CHANNELS 3 Zrotation Xrotation Yrotation
			JOINT Spine2
			{
				OFFSET 0.00000 8.61717 0.00000
				CHANNELS 3 Zrotation Xrotation Yrotation
				JOINT Spine3
				{
					OFFSET 0.00000 8.61717 0.00000
					CHANNELS 3 Zrotation Xrotation Yrotation
					JOINT Neck
					{
						OFFSET 0.00000 11.07920 1.10792
						CHANNELS 3 Zrotation Xrotation Yrotation
						JOINT Neck1
						{
							OFFSET 0.00000 7.08032 0.00000
							CHANNELS 3 Zrotation Xrotation Yrotation
							JOINT Head
							{
								OFFSET 0.00000 7.08031 0.00000
								CHANNELS 3 Zrotation Xrotation Yrotation
								End site
								{
									OFFSET 0.00000 0.00000 0.00000
								}
							}
						}
					}
					JOINT RightShoulder
					{
						OFFSET -0.01000 7.91373 5.19711
						CHANNELS 3 Zrotation Xrotation Yrotation
						JOINT RightArm
						{
							OFFSET -18.41580 0.00000 0.00000
							CHANNELS 3 Zrotation Xrotation Yrotation
							JOINT RightForeArm
							{
								OFFSET -29.11090 0.00000 0.00000
								CHANNELS 3 Zrotation Xrotation Yrotation
								JOINT RightHand
								{
									OFFSET -24.65040 0.00000 0.00000
									CHANNELS 3 Zrotation Xrotation Yrotation
									JOINT RightHandThumb1
									{
										OFFSET -5.35114 -0.85590 3.97906
										CHANNELS 3 Zrotation Xrotation Yrotation
										JOINT RightHandThumb2
										{
											OFFSET -4.52789 0.00000 0.00000
											CHANNELS 3 Zrotation Xrotation Yrotation
											JOINT RightHandThumb3
											{
												OFFSET -2.46976 0.00000 0.00000
												CHANNELS 3 Zrotation Xrotation Yrotation
												End site
												{
													OFFSET 0.00000 0.00000 0.00000
												}
											}
										}
									}
									JOINT RightHandIndex1
									{
										OFFSET -14.26970 0.00000 2.88139
										CHANNELS 3 Zrotation Xrotation Yrotation
										JOINT RightHandIndex2
										{
											OFFSET -5.48836 0.00000 0.00000
											CHANNELS 3 Zrotation Xrotation Yrotation
											JOINT RightHandIndex3
											{
												OFFSET -3.01859 0.00000 0.00000
												CHANNELS 3 Zrotation Xrotation Yrotation
												End site
												{
													OFFSET 0.00000 0.00000 0.00000
												}
											}
										}
									}
									JOINT RightHandMiddle1
									{
										OFFSET -14.26970 0.00000 -0.09147
										CHANNELS 3 Zrotation Xrotation Yrotation
										JOINT RightHandMiddle2
										{
											OFFSET -6.17441 0.00000 0.00000
											CHANNELS 3 Zrotation Xrotation Yrotation
											JOINT RightHandMiddle3
											{
												OFFSET -3.56743 0.00000 0.00000
												CHANNELS 3 Zrotation Xrotation Yrotation
												End site
												{
													OFFSET 0.00000 0.00000 0.00000
												}
											}
										}
									}
									JOINT RightHandRing1
									{
										OFFSET -12.69180 0.00000 -3.06433
										CHANNELS 3 Zrotation Xrotation Yrotation
										JOINT RightHandRing2
										{
											OFFSET -5.62556 0.00000 0.00000
											CHANNELS 3 Zrotation Xrotation Yrotation
											JOINT RightHandRing3
											{
												OFFSET -3.56744 0.00000 0.00000
												CHANNELS 3 Zrotation Xrotation Yrotation
												End site
												{
													OFFSET 0.00000 0.00000 0.00000
												}
											}
										}
									}
									JOINT RightHandPinky1
									{
										OFFSET -11.11390 0.00000 -6.03719
										CHANNELS 3 Zrotation Xrotation Yrotation
										JOINT RightHandPinky2
										{
											OFFSET -4.52789 0.00000 0.00000
											CHANNELS 3 Zrotation Xrotation Yrotation
											JOINT RightHandPinky3
											{
												OFFSET -2.46976 0.00000 0.00000
												CHANNELS 3 Zrotation Xrotation Yrotation
												End site
												{
													OFFSET 0.00000 0.00000 0.00000
												}
											}
										}
									}
								}
							}
						}
					}
					JOINT LeftShoulder
					{
						OFFSET 0.01000 7.91373 5.19711
						CHANNELS 3 Zrotation Xrotation Yrotation
						JOINT LeftArm
						{
							OFFSET 18.41580 0.00000 0.00000
							CHANNELS 3 Zrotation Xrotation Yrotation
							JOINT LeftForeArm
							{
								OFFSET 29.11090 0.00000 0.00000
								CHANNELS 3 Zrotation Xrotation Yrotation
								JOINT LeftHand
								{
									OFFSET 24.65040 0.00000 0.00000
									CHANNELS 3 Zrotation Xrotation Yrotation
									JOINT LeftHandThumb1
									{
										OFFSET 5.35114 -0.85590 3.97906
										CHANNELS 3 Zrotation Xrotation Yrotation
										JOINT LeftHandThumb2
										{
											OFFSET 4.52789 0.00000 0.00000
											CHANNELS 3 Zrotation Xrotation Yrotation
											JOINT LeftHandThumb3
											{
												OFFSET 2.46977 0.00000 0.00000
												CHANNELS 3 Zrotation Xrotation Yrotation
												End site
												{
													OFFSET 0.00000 0.00000 0.00000
												}
											}
										}
									}
									JOINT LeftHandIndex1
									{
										OFFSET 14.26970 0.00000 2.88139
										CHANNELS 3 Zrotation Xrotation Yrotation
										JOINT LeftHandIndex2
										{
											OFFSET 5.48836 0.00000 0.00000
											CHANNELS 3 Zrotation Xrotation Yrotation
											JOINT LeftHandIndex3
											{
												OFFSET 3.01859 0.00000 0.00000
												CHANNELS 3 Zrotation Xrotation Yrotation
												End site
												{
													OFFSET 0.00000 0.00000 0.00000
												}
											}
										}
									}
									JOINT LeftHandMiddle1
									{
										OFFSET 14.26970 0.00000 -0.09147
										CHANNELS 3 Zrotation Xrotation Yrotation
										JOINT LeftHandMiddle2
										{
											OFFSET 6.17440 0.00000 0.00000
											CHANNELS 3 Zrotation Xrotation Yrotation
											JOINT LeftHandMiddle3
											{
												OFFSET 3.56744 0.00000 0.00000
												CHANNELS 3 Zrotation Xrotation Yrotation
												End site
												{
													OFFSET 0.00000 0.00000 0.00000
												}
											}
										}
									}
									JOINT LeftHandRing1
									{
										OFFSET 12.69180 0.00000 -3.06433
										CHANNELS 3 Zrotation Xrotation Yrotation
										JOINT LeftHandRing2
										{
											OFFSET 5.62556 0.00000 0.00000
											CHANNELS 3 Zrotation Xrotation Yrotation
											JOINT LeftHandRing3
											{
												OFFSET 3.56744 0.00000 0.00000
												CHANNELS 3 Zrotation Xrotation Yrotation
												End site
												{
													OFFSET 0.00000 0.00000 0.00000
												}
											}
										}
									}
									JOINT LeftHandPinky1
									{
										OFFSET 11.11390 0.00000 -6.03719
										CHANNELS 3 Zrotation Xrotation Yrotation
										JOINT LeftHandPinky2
										{
											OFFSET 4.52789 0.00000 0.00000
											CHANNELS 3 Zrotation Xrotation Yrotation
											JOINT LeftHandPinky3
											{
												OFFSET 2.46976 0.00000 0.00000
												CHANNELS 3 Zrotation Xrotation Yrotation
												End site
												{
													OFFSET 0.00000 0.00000 0.00000
												}
											}
										}
									}
								}
							}
						}
					}
					JOINT pCube4
					{
						OFFSET 0.00000 10.91090 1.10792
						CHANNELS 3 Zrotation Xrotation Yrotation
						End site
						{
							OFFSET 0.00000 0.00000 0.00000
						}
					}
				}
			}
		}
	}
	JOINT RightUpLeg
	{
		OFFSET -9.98441 0.00000 0.00000
		CHANNELS 3 Zrotation Xrotation Yrotation
		JOINT RightLeg
		{
			OFFSET 0.00000 -42.11790 0.00000
			CHANNELS 3 Zrotation Xrotation Yrotation
			JOINT RightFoot
			{
				OFFSET 0.00000 -45.00020 -0.00001
				CHANNELS 3 Zrotation Xrotation Yrotation
				JOINT RightForeFoot
				{
					OFFSET 0.00000 -3.74820 0.00000
					CHANNELS 3 Zrotation Xrotation Yrotation
					JOINT RightToeBase
					{
						OFFSET 0.00000 0.06325 14.43120
						CHANNELS 3 Zrotation Xrotation Yrotation
						End site
						{
							OFFSET 0.00000 0.00000 0.00000
						}
					}
				}
			}
		}
	}
	JOINT LeftUpLeg
	{
		OFFSET 9.98441 0.00000 0.00000
		CHANNELS 3 Zrotation Xrotation Yrotation
		JOINT LeftLeg
		{
			OFFSET 0.00000 -42.11800 0.00000
			CHANNELS 3 Zrotation Xrotation Yrotation
			JOINT LeftFoot
			{
				OFFSET 0.00000 -45.00070 0.00000
				CHANNELS 3 Zrotation Xrotation Yrotation
				JOINT LeftForeFoot
				{
					OFFSET 0.00000 -3.74824 0.00000
					CHANNELS 3 Zrotation Xrotation Yrotation
					JOINT LeftToeBase
					{
						OFFSET 0.00000 0.06325 14.43110
						CHANNELS 3 Zrotation Xrotation Yrotation
						End site
						{
							OFFSET 0.00000 0.00000 0.00000
						}
					}
				}
			}
		}
	}
}
MOTION
Frames: 4
Frame Time: 0.050000
-0.002368358410549897 -0.048718786561893095 0.012717436576101422 -0.01904026374157835 0.004491653145484132 -0.015530905650261925 3.5350424355490846 3.4859441252270136 -1.914661622671887 -0.8093847835481789 3.511175217845159 0.43450329770003077 -0.7051808329428999 -0.8217766472939569 -0.28254789047255785 -0.12653188179973096 0.0014120845497259393 -0.5218170762874447 -0.03162809312386489 11.875210937509634 -0.8590189247751683 0.30637132432858827 -0.411665933512649 -1.6712603230829646 0.680348893569321 -16.387903162182766 -0.12279224421333776 -7.696616793163294 2.96748502878561 -16.121452110420957 77.6565241817888 5.575115989045108 9.839536138430995 5.945260337772167 1.496781549211461 96.83755903817405 3.4433786864509885 0.06687140279653818 -0.05245139267524437 4.540618742527198 -0.14917832959453922 -1.6303475367710365 0.021590909990675117 0.043160516988217074 -56.24768136972469 0.04406470272425062 -0.04296421403013379 -56.199455278384335 -38.782565782755846 0.017467171027142556 0.037358413959195313 -0.015010318645019331 -0.039775101727241656 -0.03855604071068999 0.018445061743420876 -0.021698825740655635 0.044009302292764736 -36.67315661868677 0.0140738275640663 -0.045244422587506515 0.020107469702103777 -0.0334594202095547 0.02248681801126379 0.020842442104993458 0.02731154935985471 0.02336135993274567 -19.762811720493865 0.03591757898080338 -0.029858336262516962 -0.02633911321974523 -0.037605392188535626 -0.007361840791216878 -0.015963897713423915 -0.023331984700357244 0.012945655432276973 24.07144421283388 -0.0012450179854916461 -0.01753714192661404 28.902220117292188 -0.03481464963116253 0.018686775743659872 28.86474421655418 -0.03196415223497069 -0.04354835913724681 8.741923599432567 2.21222753475515 12.949443901037256 -72.41993291469116 27.274535804857557 -18.133238037451722 -17.929796142051984 1.4760520907252812 -90.8841263758015 -10.364210097046598 -7.050847965417618 3.4624324546134058 -0.4950114254260092 0.08308316774621313 -8.076944774464367 0.0033401637817678685 0.012771227996565887 44.546283684928355 0.026951854673440055 -0.02791181824205593 44.53862627299441 12.503148070676383 -0.04964220477336191 0.036387894157751774 0.03142542855811955 -0.009537453475694173 0.008694683503026084 0.025493154595231122 -0.021132855731653417 0.022342925671950675 11.087664299080785 -0.020204135796042064 -0.022287315182387208 -0.025120302239679322 0.035992428222589225 0.022451806789245174 -0.013963361316989399 -0.03205562779961054 -0.030248994395814223 4.785213404659732 -0.016903145101207353 0.020836022008620527 0.029566471652883702 0.015253226806003202 0.04513404607359948 -0.026267476265060805 -0.0371701953564673 0.007528003998900605 -5.551373474882434 -0.03471494464304082 0.001326062506601692 -6.739632210232497 -0.01031456425554109 0.03971212235800805 -6.761481245064893 -0.04815587499501041 -0.013209582989584268 0.0012165126448256975 0.00024905658384633103 0.021476483112446033 8.053280251756288 3.5205639753090052 -19.202972062957887 0.021566402612257608 10.377786773111707 0.0201949353287699 -5.6254345705330255 -15.650833744304812 3.2182449152107653 0.01954713068545593 -0.02960627332615451 -0.02131534546813005 0.021973721163802144 4.66623938185824 -0.04998775017490323 12.436217054042393 -8.221754121227722 6.880083813283278 0.002573557201459971 46.414912651591514 0.04884194761746023 -4.275365282924246 -14.739170653239137 -3.8443983727722943 0.03909367054031386 0.031745633437627235 -0.02526763593060102 0.005281302687414766 -10.725538070486662 -0.015910071664671673 
0.03236801900918343 -0.036120404693555756 0.04613525932501927 0.03211153341076944 0.04322361868992475 -0.023484202889257257 3.2348087842314666 3.5683055308293787 -1.841664467231453 -0.882675808173541 3.4898327853408126 0.426455042213756 -0.6618780235115542 -0.8101666066177832 -0.33312050308346713 -0.16584395255012632 -0.03094042905317935 -0.5540314996863138 -0.13975313149340324 11.724143817827239 -0.6962544170216796 0.30572831496794994 -0.47053805347737265 -1.438482443009267 0.5659412981069477 -16.393045072610786 -0.09732154986457053 -7.253528155122577 2.848848360135492 -16.03441984788339 77.33744632158144 5.546463137701783 8.392525737484092 7.97892576479365 2.4865101028546324 96.01684657407576 4.023779129028447 0.004268713414549591 -0.4900956876977225 4.551494493115841 -0.0967502480530622 -1.6385120991084412 0.03140777631399657 -0.01205521956533809 -56.194705393777404 0.0034435806398940096 -0.01469929171850106 -56.24152726588802 -38.7511969312447 0.04576704441686923 0.04674564910872032 -0.028793373833500245 -0.014677733089997447 0.035636858199127944 -0.01902556801975534 -0.012040073159310594 0.024683697207780502 -36.70476143629587 -0.00769002444230493 -0.01885575860039114 -0.0011340509551244213 -0.021782274622571457 0.01785317032739451 0.03075928331296505 -0.035985699914117215 -0.016065087018989354 -19.798760330827616 0.029152194220893574 -0.024263303612327317 0.01483112150288157 0.014098471450381836 -0.010226484111394079 -0.006880249048902118 0.014137898188852699 0.040648385225290073 24.058221105992242 -0.008604066859015859 0.04358068926270204 28.864446420611337 0.016987526319514216 -0.04094280495835106 28.896539731167035 0.04715315072935297 -0.014284780080325177 8.394283966263659 2.1314841751805087 12.921525550313527 -72.17928462897952 27.144085117488856 -17.278735777327647 -22.49866070114951 3.4320489541823673 -90.72061793439983 -11.911091829454074 -8.056506384622008 4.281978368850973 -0.4877253249221234 0.025440659694463193 -8.1483341204764 0.03043884700830948 -0.03475916609235414 44.53574981849098 -0.010716807611413514 -0.03274378390487013 44.527433594099406 12.488803543240042 0.033244025059749 -0.013638350563014089 -0.03201703847022816 -0.030188281450435832 0.024609793983576836 0.030915738202381162 0.01821324294420456 -0.01277716018307472 11.152397995253748 -0.0015404197730018465 -0.0416341654396 -0.031480304274420584 0.04646377197709563 -0.014691015363450497 0.024129046371207316 0.02804121391156948 0.03522885327008592 4.74851782124464 -0.022683315120844504 0.031742025120674304 -0.006168281419110958 0.011259031232246593 0.04443876938607583 -0.033929356108395696 -0.006129770719346339 -0.025945208967636163 -5.6291802016151165 -0.038803096203899344 0.018126931451181758 -6.71806875679206 0.031681292146072015 0.0478410903824266 -6.736799565300343 0.04921439032204174 0.00011632976615992022 0.03228366804074733 -0.01972485684249597 0.005903214865533462 8.028180950853436 3.5426962800407016 -19.222218117843543 0.04155242413768551 10.409686008706709 -0.02633147182728916 -5.575934689126147 -15.621309005950225 3.213169317748718 0.04451470906971789 -0.032587862091202624 0.013468037458651994 -0.017308126061165063 4.660956518625216 0.027472536546062326 12.468391327999036 -8.197377486465152 6.880119373397296 0.006461156566543648 46.389628220050405 -0.042719030280974825 -4.307572006708292 -14.763722302286883 -3.8291139007011767 0.028829403477055097 -0.0033375572890657415 -0.044447285967695156 0.02136162801137424 -10.717993016442934 -0.03533875325116169 
0.0006937808121864845 0.03149781865424483 -0.04211816741362477 -0.04441189909863441 0.010886661171468458 0.00696332849505365 3.0133692369230056 3.745360676734478 -1.8485805331808445 -0.8270919610233884 3.5339940174937476 0.39987013676264827 -0.6687978261419307 -0.7374393164948461 -0.3437932453852445 -0.19543141456173785 0.030891305980487088 -0.5551197103430336 -0.1445638359163133 11.482314143990296 -0.6435312557025491 0.298518899693887 -0.5259873704913176 -1.3573876980726973 0.530419288009627 -16.44285350217864 -0.13915169063016383 -6.80206444029447 2.8309488063448973 -15.947139196307559 77.21435814597035 5.527799473496282 6.50247024642094 10.309318852561022 3.7339180115001716 93.2412216113827 5.003639224594228 -0.052059054140518125 -1.042762106003479 4.511454598702225 -0.14514112884344524 -1.5607293495631427 0.019055900066938004 -0.02161573123363821 -56.2164310087472 0.033292499576388766 -0.03414263565716915 -56.26558726176029 -38.7459309631906 0.020642744533766112 0.04406764563177013 -0.036448152507903606 -0.006623392028683342 -0.004787972736964664 0.012825739145107979 0.00399336020898541 -0.02030500932165566 -36.69940764777537 -0.01758621417520871 -0.03774046688242363 -0.018728272386177906 -0.02862112907690759 0.013433703813149038 -0.042057171347670855 -0.0390754537918419 0.007834234496521587 -19.71487316408109 0.025988164782168522 0.025270551836258297 0.04249838320077921 -0.04275052168193791 -0.02469293274780861 -0.034676435470841135 0.0015498721130551565 0.01149357286684815 24.089789272759024 -0.0392645206635192 -0.043751032367992986 28.91462792769042 0.008775360983403667 -0.00880473182591478 28.858759414588615 0.04008485942375418 0.00019139949371337796 8.180324444845054 2.1212839015110965 12.93905057254044 -72.21249094478586 26.577310955992917 -15.998361032666432 -27.13459029461755 5.258055771883684 -89.38011220014562 -13.049640697242902 -8.410832647798921 4.877766406809815 -0.5220072896778091 0.08992015068395698 -8.164882768802046 0.0197449479930741 -0.01696407046431536 44.52109460509026 0.030194957491815347 0.02622560746134981 44.55873524690338 12.50590883019391 0.0027575541720153696 0.043513240923218476 0.03932019907251346 0.007410507341047627 -0.038001852279379175 -0.0024297700144809862 -0.03327715253286011 0.04091449514967252 11.066258765311435 -0.01139688944240229 0.035642822407418985 0.007154279795860339 -0.04483821076848067 0.040041141820435625 -0.0019660001777571903 0.04255394157244897 0.01835815353942972 4.809416092061181 -0.04520094856229628 -0.049832402581806025 0.04997151873478237 0.03730437988864329 0.009736810456888659 -0.008742662108306048 0.03377381453971138 -0.029938458971440922 -5.561963052779212 0.03106380630056895 -0.01791091443738894 -6.731062426489307 0.02841774201552576 0.008668293526889565 -6.696553141543612 0.0032710377358021823 0.033404413572086136 -0.0025159990733793504 0.03649960945293152 -0.01671033468192164 8.015996415058819 3.4719913228573738 -19.22222410767783 0.010397340330183224 10.43908289016034 -0.0015907393771702125 -5.635852049641685 -15.63768586433998 3.146742844836219 -0.0027653373891376584 -0.03498939897597296 0.006329633759639215 0.027678121223822797 4.7005686488294 -0.046688389048597304 12.426769183388405 -8.201318797337436 6.873862344769754 0.011216950896604861 46.38432738048368 -0.02029124708174622 -4.339694246329213 -14.793382442036265 -3.8001153419309968 -0.020083064726804507 -0.0004251009764240419 0.02220653961692558 -0.0007509765652518492 -10.698094796813619 0.00025505178122879217 
0.018020832652778377 -0.030849229902797454 -0.01367733597375033 -0.02747882163301554 0.00910376256611322 0.03089039690210479 2.9783815096734134 3.8513213537377973 -1.7915294936123218 -0.8101115244260406 3.5179648261081757 0.3901916622038015 -0.6482087467512637 -0.6931255820815457 -0.3027513287260389 -0.16411602046685642 -0.027569014864996882 -0.5358059858231164 -0.17767399997289235 11.28381355759876 -0.6019504351022879 0.2569720506704155 -0.5912305071930667 -1.3655442839649372 0.5420733692953519 -16.533693575138404 -0.1418107449919264 -6.53417099753219 2.7610015586429273 -15.944811408724332 77.33342858278765 5.601931179287149 4.960580360449051 12.163840391038931 4.799764656726985 89.80441999527768 6.292527107108081 -0.10000999946654311 -1.5404196812121147 4.502870661266354 -0.12579326204368382 -1.6330671187003771 0.04761640571908187 -0.03863957150387737 -56.222234239769776 0.029190991045493168 0.041686297697726034 -56.213872574537184 -38.74885926878065 -0.01635193358843314 -0.04050742901700588 -0.0038226944039237184 -0.029088060885581406 0.02296254545859153 -0.01230601402680627 0.027384233764399097 -0.015161231736679047 -36.727078681457016 -0.028064575234828512 -0.024581477960591066 -0.004994978076756625 0.011071547455880092 0.04126556437755852 -0.025564681725159154 0.0019322420020003988 0.0465507659423944 -19.800803606830854 0.03876141262997115 -0.009323893850330866 0.011013795742235332 0.02073562480657465 -0.003555139631572913 0.001425727207354413 0.04986654301313464 -0.006131294571106629 24.06092287418704 -0.019440801631855083 -0.04832189458039707 28.886023951936576 -0.0341973291042054 -0.018517919181759664 28.870818551413596 0.031631726361476195 -0.04847245151834231 7.87860905670355 2.0142982005473566 13.007663656789338 -72.35894293449033 26.147183433134366 -14.815707177624914 -30.364200089607902 6.387081096266861 -87.63762233042269 -14.007071125884332 -8.294513896331269 5.0870748309168325 -0.45400122890239997 0.08530945642132255 -8.147105059111954 0.008866850175393914 0.03435915374764374 44.54179651868924 -0.042776764999909685 0.03542626005437406 44.53685287042158 12.505246061712745 0.006592285027322672 0.024521464525635445 0.01930379414391399 0.025941616893853582 -0.04622677010389236 -0.04051868021235156 0.017446195808396903 -0.04316405596116302 11.121982633611564 -0.033458565003592344 0.008235664353227442 0.00787319374300242 -0.022125782033842974 0.042938405388568114 0.012053483495895303 0.0419285225335884 -0.01277831002122469 4.819947552377174 -0.026664041971457546 0.01401199146996993 0.005685153745292492 0.041591480778918805 -0.023260227545686782 -0.011245210658296216 0.03087327064673122 0.0460433157929475 -5.5572157311307615 0.03986362894586091 0.03989430707481344 -6.752244225351352 -0.04300917340811426 -0.04185896613770771 -6.724925823623566 -0.018894712965740024 0.011900445867989965 -0.005512628695469872 0.03725335397356353 0.03579381621197405 8.029132688442765 3.5115742878041387 -19.181498913971787 0.03022399137193132 10.403740186668935 -0.002540924102498787 -5.594563978505307 -15.661427439187234 3.2233133002566032 0.027862646376243205 0.008774248001256386 -0.001998527233709898 0.04766334918756064 4.721724242286077 -0.036984714654665865 12.450436332145552 -8.272159508983222 6.875180751487329 -0.029882000787526744 46.385309545636076 0.011896240129479409 -4.285850518219662 -14.76538195478161 -3.786749346013066 0.036613884784876614 -0.034530992715553654 0.02512375673848864 0.03690710551545772 -10.74186546992465 -0.015666024430035754 
